<svg width="900" height="439" viewBox="0 0 900 439" fill="none" xmlns="http://www.w3.org/2000/svg">
<path d="M865.638 361.223C861.226 361.223 857.237 360.406 853.671 358.774C850.104 357.111 847.279 354.707 845.193 351.563C843.138 348.418 842.111 344.564 842.111 339.998C842.111 336.068 842.866 332.833 844.378 330.293C845.889 327.753 847.928 325.743 850.497 324.261C853.066 322.78 855.937 321.661 859.11 320.905C862.284 320.15 865.517 319.575 868.812 319.182C872.982 318.698 876.367 318.305 878.966 318.003C881.565 317.67 883.454 317.141 884.632 316.416C885.811 315.69 886.4 314.511 886.4 312.878V312.561C886.4 308.6 885.282 305.531 883.046 303.354C880.84 301.178 877.546 300.089 873.163 300.089C868.6 300.089 865.004 301.102 862.374 303.128C859.775 305.123 857.977 307.345 856.98 309.794L844.242 306.892C845.753 302.659 847.959 299.243 850.86 296.642C853.791 294.012 857.161 292.107 860.969 290.928C864.777 289.719 868.781 289.114 872.982 289.114C875.762 289.114 878.709 289.447 881.822 290.112C884.965 290.747 887.896 291.926 890.616 293.649C893.366 295.373 895.618 297.837 897.371 301.042C899.124 304.216 900 308.343 900 313.422V359.681H886.763V350.157H886.219C885.343 351.91 884.028 353.634 882.275 355.327C880.522 357.02 878.271 358.426 875.521 359.545C872.771 360.663 869.476 361.223 865.638 361.223ZM868.585 350.338C872.332 350.338 875.536 349.598 878.195 348.116C880.885 346.635 882.925 344.7 884.315 342.311C885.736 339.892 886.446 337.307 886.446 334.556V325.577C885.962 326.06 885.025 326.514 883.635 326.937C882.275 327.33 880.719 327.678 878.966 327.98C877.213 328.252 875.506 328.509 873.843 328.751C872.181 328.963 870.791 329.144 869.673 329.295C867.044 329.628 864.641 330.187 862.465 330.973C860.319 331.759 858.597 332.893 857.297 334.375C856.028 335.826 855.393 337.761 855.393 340.18C855.393 343.536 856.632 346.075 859.11 347.799C861.589 349.492 864.747 350.338 868.585 350.338Z" fill="white"/>
<path d="M794.084 361.041C788.463 361.041 783.447 359.605 779.034 356.733C774.652 353.83 771.207 349.703 768.698 344.352C766.22 338.97 764.981 332.515 764.981 324.987C764.981 317.459 766.235 311.019 768.744 305.667C771.282 300.316 774.758 296.219 779.17 293.377C783.582 290.535 788.584 289.114 794.175 289.114C798.497 289.114 801.972 289.84 804.602 291.291C807.261 292.712 809.316 294.375 810.767 296.28C812.247 298.184 813.396 299.862 814.212 301.314H815.028V266.801H828.582V359.681H815.345V348.842H814.212C813.396 350.323 812.217 352.016 810.676 353.921C809.165 355.826 807.08 357.489 804.42 358.91C801.761 360.331 798.315 361.041 794.084 361.041ZM797.076 349.477C800.975 349.477 804.269 348.449 806.959 346.393C809.679 344.307 811.734 341.419 813.124 337.731C814.544 334.042 815.255 329.749 815.255 324.851C815.255 320.013 814.56 315.781 813.169 312.153C811.779 308.524 809.739 305.698 807.049 303.672C804.36 301.646 801.035 300.633 797.076 300.633C792.996 300.633 789.597 301.692 786.877 303.808C784.157 305.924 782.102 308.812 780.711 312.47C779.352 316.128 778.672 320.255 778.672 324.851C778.672 329.507 779.367 333.694 780.757 337.413C782.147 341.132 784.202 344.08 786.922 346.257C789.672 348.403 793.057 349.477 797.076 349.477Z" fill="white"/>
<path d="M725.659 361.087C718.799 361.087 712.89 359.62 707.934 356.688C703.008 353.725 699.2 349.567 696.51 344.216C693.851 338.834 692.521 332.53 692.521 325.304C692.521 318.169 693.851 311.88 696.51 306.438C699.2 300.996 702.947 296.748 707.753 293.695C712.588 290.641 718.24 289.114 724.707 289.114C728.636 289.114 732.444 289.764 736.131 291.064C739.818 292.364 743.127 294.405 746.058 297.187C748.99 299.968 751.302 303.581 752.994 308.026C754.687 312.44 755.533 317.806 755.533 324.125V328.933H700.182V318.774H742.25C742.25 315.206 741.525 312.047 740.074 309.295C738.624 306.514 736.584 304.322 733.955 302.72C731.356 301.117 728.303 300.316 724.798 300.316C720.99 300.316 717.665 301.253 714.824 303.128C712.014 304.972 709.838 307.391 708.297 310.384C706.786 313.347 706.03 316.567 706.03 320.044V327.98C706.03 332.636 706.846 336.597 708.478 339.862C710.14 343.127 712.452 345.622 715.414 347.345C718.375 349.038 721.836 349.885 725.795 349.885C728.364 349.885 730.706 349.522 732.821 348.796C734.937 348.041 736.765 346.922 738.307 345.44C739.848 343.959 741.026 342.13 741.842 339.953L754.671 342.266C753.644 346.045 751.8 349.356 749.141 352.198C746.512 355.01 743.202 357.201 739.213 358.774C735.254 360.316 730.736 361.087 725.659 361.087Z" fill="white"/>
<path d="M687.832 290.021L662.582 359.681H648.076L622.781 290.021H637.332L654.966 343.626H655.692L673.281 290.021H687.832Z" fill="white"/>
<path d="M585.6 361.087C579.072 361.087 573.375 359.59 568.509 356.597C563.644 353.604 559.866 349.416 557.176 344.035C554.487 338.653 553.142 332.364 553.142 325.168C553.142 317.942 554.487 311.623 557.176 306.212C559.866 300.8 563.644 296.597 568.509 293.604C573.375 290.611 579.072 289.114 585.6 289.114C592.128 289.114 597.824 290.611 602.69 293.604C607.556 296.597 611.333 300.8 614.023 306.212C616.713 311.623 618.058 317.942 618.058 325.168C618.058 332.364 616.713 338.653 614.023 344.035C611.333 349.416 607.556 353.604 602.69 356.597C597.824 359.59 592.128 361.087 585.6 361.087ZM585.645 349.703C589.876 349.703 593.382 348.585 596.162 346.347C598.942 344.11 600.998 341.132 602.327 337.413C603.687 333.694 604.367 329.598 604.367 325.123C604.367 320.679 603.687 316.597 602.327 312.878C600.998 309.129 598.942 306.121 596.162 303.853C593.382 301.586 589.876 300.452 585.645 300.452C581.384 300.452 577.848 301.586 575.037 303.853C572.257 306.121 570.187 309.129 568.827 312.878C567.497 316.597 566.832 320.679 566.832 325.123C566.832 329.598 567.497 333.694 568.827 337.413C570.187 341.132 572.257 344.11 575.037 346.347C577.848 348.585 581.384 349.703 585.645 349.703ZM580.024 280.724L590.632 259.817H604.911L590.858 280.724H580.024Z" fill="white"/>
<path d="M476.387 359.681V266.801H510.386C516.974 266.801 522.429 267.89 526.751 270.067C531.072 272.213 534.306 275.131 536.452 278.819C538.598 282.478 539.67 286.605 539.67 291.2C539.67 295.07 538.96 298.336 537.54 300.996C536.119 303.627 534.215 305.743 531.828 307.345C529.471 308.918 526.872 310.066 524.031 310.792V311.699C527.113 311.85 530.12 312.848 533.052 314.692C536.014 316.506 538.462 319.091 540.396 322.447C542.33 325.803 543.297 329.885 543.297 334.692C543.297 339.439 542.179 343.702 539.942 347.481C537.736 351.23 534.321 354.208 529.697 356.415C525.073 358.592 519.165 359.681 511.972 359.681H476.387ZM490.394 347.663H510.612C517.322 347.663 522.127 346.363 525.028 343.762C527.929 341.162 529.38 337.912 529.38 334.012C529.38 331.079 528.64 328.388 527.159 325.939C525.678 323.49 523.562 321.54 520.812 320.089C518.092 318.638 514.859 317.912 511.111 317.912H490.394V347.663ZM490.394 306.983H509.162C512.305 306.983 515.131 306.378 517.639 305.168C520.178 303.959 522.187 302.266 523.668 300.089C525.179 297.882 525.935 295.282 525.935 292.289C525.935 288.449 524.59 285.229 521.9 282.629C519.21 280.029 515.085 278.729 509.524 278.729H490.394V306.983Z" fill="white"/>
<path d="M401.708 361.087C394.848 361.087 388.94 359.62 383.983 356.688C379.057 353.725 375.249 349.567 372.559 344.216C369.9 338.834 368.57 332.53 368.57 325.304C368.57 318.169 369.9 311.88 372.559 306.438C375.249 300.996 378.997 296.748 383.802 293.695C388.637 290.641 394.289 289.114 400.756 289.114C404.685 289.114 408.493 289.764 412.18 291.064C415.867 292.364 419.176 294.405 422.108 297.187C425.039 299.968 427.351 303.581 429.043 308.026C430.736 312.44 431.582 317.806 431.582 324.125V328.933H376.231V318.774H418.3C418.3 315.206 417.574 312.047 416.124 309.295C414.673 306.514 412.633 304.322 410.004 302.72C407.405 301.117 404.352 300.316 400.847 300.316C397.039 300.316 393.715 301.253 390.874 303.128C388.063 304.972 385.887 307.391 384.346 310.384C382.835 313.347 382.079 316.567 382.079 320.044V327.98C382.079 332.636 382.895 336.597 384.527 339.862C386.189 343.127 388.501 345.622 391.463 347.345C394.425 349.038 397.885 349.885 401.844 349.885C404.413 349.885 406.755 349.522 408.871 348.796C410.986 348.041 412.814 346.922 414.356 345.44C415.897 343.959 417.076 342.13 417.892 339.953L430.721 342.266C429.693 346.045 427.85 349.356 425.19 352.198C422.561 355.01 419.252 357.201 415.262 358.774C411.303 360.316 406.785 361.087 401.708 361.087Z" fill="white"/>
<path d="M320.408 361.041C314.787 361.041 309.77 359.605 305.358 356.733C300.976 353.83 297.53 349.703 295.022 344.352C292.544 338.97 291.305 332.515 291.305 324.987C291.305 317.459 292.559 311.019 295.067 305.667C297.606 300.316 301.081 296.219 305.494 293.377C309.906 290.535 314.908 289.114 320.499 289.114C324.82 289.114 328.296 289.84 330.925 291.291C333.585 292.712 335.64 294.375 337.09 296.28C338.571 298.184 339.719 299.862 340.535 301.314H341.351V266.801H354.906V359.681H341.669V348.842H340.535C339.719 350.323 338.541 352.016 337 353.921C335.488 355.826 333.403 357.489 330.744 358.91C328.084 360.331 324.639 361.041 320.408 361.041ZM323.4 349.477C327.298 349.477 330.593 348.449 333.282 346.393C336.002 344.307 338.057 341.419 339.447 337.731C340.868 334.042 341.578 329.749 341.578 324.851C341.578 320.013 340.883 315.781 339.493 312.153C338.103 308.524 336.063 305.698 333.373 303.672C330.683 301.646 327.359 300.633 323.4 300.633C319.32 300.633 315.92 301.692 313.2 303.808C310.48 305.924 308.425 308.812 307.035 312.47C305.675 316.128 304.995 320.255 304.995 324.851C304.995 329.507 305.69 333.694 307.08 337.413C308.47 341.132 310.526 344.08 313.245 346.257C315.996 348.403 319.38 349.477 323.4 349.477Z" fill="white"/>
<path d="M763.814 233.377C757.286 233.377 751.589 231.881 746.724 228.888C741.858 225.895 738.08 221.707 735.391 216.325C732.701 210.944 731.356 204.655 731.356 197.459C731.356 190.233 732.701 183.914 735.391 178.502C738.08 173.091 741.858 168.888 746.724 165.895C751.589 162.902 757.286 161.405 763.814 161.405C770.342 161.405 776.039 162.902 780.904 165.895C785.77 168.888 789.548 173.091 792.237 178.502C794.927 183.914 796.272 190.233 796.272 197.459C796.272 204.655 794.927 210.944 792.237 216.325C789.548 221.707 785.77 225.895 780.904 228.888C776.039 231.881 770.342 233.377 763.814 233.377ZM763.859 221.994C768.09 221.994 771.596 220.876 774.376 218.638C777.157 216.401 779.212 213.423 780.542 209.704C781.902 205.985 782.582 201.889 782.582 197.414C782.582 192.97 781.902 188.888 780.542 185.169C779.212 181.42 777.157 178.412 774.376 176.144C771.596 173.877 768.09 172.743 763.859 172.743C759.598 172.743 756.062 173.877 753.252 176.144C750.471 178.412 748.401 181.42 747.041 185.169C745.711 188.888 745.046 192.97 745.046 197.414C745.046 201.889 745.711 205.985 747.041 209.704C748.401 213.423 750.471 216.401 753.252 218.638C756.062 220.876 759.598 221.994 763.859 221.994Z" fill="white"/>
<path d="M718.802 139.092V231.972H705.248V139.092H718.802Z" fill="white"/>
<path d="M689.566 139.092V231.972H676.012V139.092H689.566Z" fill="white"/>
<path d="M633.652 233.377C626.792 233.377 620.883 231.911 615.927 228.978C611.001 226.015 607.193 221.858 604.503 216.507C601.844 211.125 600.514 204.821 600.514 197.595C600.514 190.46 601.844 184.171 604.503 178.729C607.193 173.287 610.94 169.039 615.746 165.986C620.581 162.932 626.232 161.405 632.7 161.405C636.629 161.405 640.437 162.055 644.124 163.355C647.811 164.655 651.12 166.696 654.051 169.478C656.983 172.259 659.295 175.872 660.987 180.317C662.68 184.731 663.526 190.097 663.526 196.416V201.223H608.175V191.065H650.243C650.243 187.497 649.518 184.338 648.067 181.586C646.617 178.805 644.577 176.613 641.948 175.01C639.349 173.408 636.296 172.607 632.791 172.607C628.983 172.607 625.658 173.544 622.817 175.419C620.007 177.263 617.831 179.682 616.29 182.675C614.779 185.638 614.023 188.858 614.023 192.335V200.271C614.023 204.927 614.839 208.888 616.471 212.153C618.133 215.418 620.445 217.913 623.407 219.636C626.368 221.329 629.829 222.176 633.788 222.176C636.357 222.176 638.699 221.813 640.814 221.087C642.93 220.331 644.758 219.213 646.299 217.731C647.841 216.25 649.019 214.421 649.835 212.244L662.664 214.557C661.637 218.336 659.793 221.647 657.134 224.489C654.505 227.3 651.195 229.492 647.206 231.065C643.247 232.606 638.729 233.377 633.652 233.377Z" fill="white"/>
<path d="M563.096 233.377C556.356 233.377 550.554 231.851 545.688 228.797C540.853 225.713 537.135 221.465 534.536 216.053C531.937 210.641 530.638 204.443 530.638 197.459C530.638 190.384 531.967 184.141 534.627 178.729C537.286 173.287 541.034 169.039 545.869 165.986C550.705 162.932 556.401 161.405 562.96 161.405C568.248 161.405 572.963 162.388 577.103 164.353C581.243 166.288 584.583 169.009 587.122 172.516C589.69 176.023 591.217 180.12 591.7 184.806H578.508C577.783 181.541 576.121 178.729 573.522 176.371C570.953 174.013 567.508 172.834 563.186 172.834C559.408 172.834 556.099 173.831 553.258 175.827C550.448 177.792 548.257 180.604 546.685 184.262C545.114 187.89 544.328 192.183 544.328 197.142C544.328 202.221 545.099 206.605 546.64 210.294C548.181 213.982 550.357 216.839 553.168 218.865C556.009 220.891 559.348 221.904 563.186 221.904C565.755 221.904 568.082 221.435 570.167 220.498C572.283 219.53 574.051 218.155 575.471 216.371C576.922 214.587 577.934 212.44 578.508 209.931H591.7C591.217 214.436 589.751 218.457 587.303 221.994C584.855 225.532 581.576 228.313 577.466 230.339C573.386 232.365 568.596 233.377 563.096 233.377Z" fill="white"/>
<path d="M473.579 190.611V231.972H460.025V162.312H473.035V173.65H473.897C475.498 169.961 478.007 166.998 481.422 164.761C484.867 162.524 489.204 161.405 494.432 161.405C499.177 161.405 503.332 162.403 506.899 164.398C510.465 166.363 513.23 169.296 515.194 173.196C517.159 177.097 518.141 181.919 518.141 187.663V231.972H504.587V189.296C504.587 184.247 503.272 180.301 500.643 177.459C498.013 174.587 494.402 173.151 489.808 173.151C486.665 173.151 483.87 173.831 481.422 175.192C479.004 176.552 477.085 178.548 475.665 181.178C474.274 183.778 473.579 186.923 473.579 190.611Z" fill="white"/>
<path d="M414.99 233.377C408.463 233.377 402.766 231.881 397.9 228.888C393.035 225.895 389.257 221.707 386.567 216.325C383.877 210.944 382.533 204.655 382.533 197.459C382.533 190.233 383.877 183.914 386.567 178.502C389.257 173.091 393.035 168.888 397.9 165.895C402.766 162.902 408.463 161.405 414.99 161.405C421.518 161.405 427.215 162.902 432.081 165.895C436.946 168.888 440.724 173.091 443.414 178.502C446.103 183.914 447.448 190.233 447.448 197.459C447.448 204.655 446.103 210.944 443.414 216.325C440.724 221.707 436.946 225.895 432.081 228.888C427.215 231.881 421.518 233.377 414.99 233.377ZM415.036 221.994C419.267 221.994 422.772 220.876 425.553 218.638C428.333 216.401 430.388 213.423 431.718 209.704C433.078 205.985 433.758 201.889 433.758 197.414C433.758 192.97 433.078 188.888 431.718 185.169C430.388 181.42 428.333 178.412 425.553 176.144C422.772 173.877 419.267 172.743 415.036 172.743C410.775 172.743 407.239 173.877 404.428 176.144C401.648 178.412 399.577 181.42 398.217 185.169C396.888 188.888 396.223 192.97 396.223 197.414C396.223 201.889 396.888 205.985 398.217 209.704C399.577 213.423 401.648 216.401 404.428 218.638C407.239 220.876 410.775 221.994 415.036 221.994Z" fill="white"/>
<path d="M372.54 169.296H358.396C357.852 166.273 356.84 163.612 355.359 161.314C353.878 159.017 352.065 157.066 349.919 155.464C347.774 153.862 345.371 152.652 342.711 151.836C340.082 151.02 337.287 150.611 334.325 150.611C328.976 150.611 324.186 151.957 319.955 154.648C315.754 157.339 312.43 161.284 309.982 166.484C307.564 171.685 306.355 178.034 306.355 185.532C306.355 193.09 307.564 199.47 309.982 204.67C312.43 209.87 315.769 213.801 320 216.461C324.231 219.122 328.991 220.452 334.28 220.452C337.211 220.452 339.992 220.059 342.621 219.273C345.28 218.457 347.683 217.263 349.829 215.69C351.974 214.118 353.788 212.198 355.269 209.931C356.78 207.633 357.822 205.003 358.396 202.04L372.54 202.085C371.785 206.65 370.319 210.853 368.143 214.693C365.997 218.502 363.232 221.798 359.847 224.579C356.492 227.331 352.654 229.462 348.333 230.974C344.011 232.486 339.296 233.241 334.189 233.241C326.15 233.241 318.988 231.337 312.702 227.527C306.416 223.687 301.459 218.2 297.833 211.065C294.236 203.929 292.438 195.418 292.438 185.532C292.438 175.615 294.251 167.104 297.878 159.999C301.505 152.864 306.461 147.392 312.747 143.582C319.033 139.742 326.18 137.822 334.189 137.822C339.115 137.822 343.709 138.533 347.97 139.954C352.261 141.345 356.115 143.401 359.53 146.122C362.945 148.813 365.77 152.108 368.007 156.008C370.243 159.878 371.754 164.308 372.54 169.296Z" fill="white"/>
<path d="M109.704 403.082C112.458 403.082 114.69 405.315 114.69 408.07C114.69 410.826 112.458 413.059 109.704 413.059C106.95 413.059 104.717 410.826 104.717 408.07C104.717 405.315 106.95 403.082 109.704 403.082Z" fill="white"/>
<path d="M143.114 403.082C145.868 403.082 148.1 405.315 148.1 408.07C148.1 410.826 145.868 413.059 143.114 413.059C140.36 413.059 138.127 410.826 138.127 408.07C138.127 405.315 140.36 403.082 143.114 403.082Z" fill="white"/>
<path d="M109.704 370.157C112.458 370.157 114.69 372.39 114.69 375.145C114.69 377.901 112.458 380.134 109.704 380.134C106.95 380.134 104.717 377.901 104.717 375.145C104.717 372.39 106.95 370.157 109.704 370.157Z" fill="white"/>
<path d="M143.114 369.658C145.868 369.658 148.1 371.891 148.1 374.647C148.1 377.402 145.868 379.635 143.114 379.635C140.36 379.635 138.127 377.402 138.127 374.647C138.127 371.891 140.36 369.658 143.114 369.658Z" fill="white"/>
<path fill-rule="evenodd" clip-rule="evenodd" d="M232.71 331.129C234.383 331.129 235.99 331.321 237.54 331.656C239.091 331.991 240.58 332.465 242.043 333.039C242.927 333.386 245.46 334.589 247.639 335.647C242.248 369.003 219.624 439 124.664 439C30.6926 439 7.55735 370.454 1.86119 336.701C3.61073 336.015 5.3255 335.345 6.00625 334.999C7.41778 334.281 8.85893 333.614 10.3227 333.039C11.7865 332.465 13.2905 331.991 14.8413 331.656C16.3922 331.32 17.9836 331.129 19.6564 331.129C21.3292 331.129 22.9358 331.321 24.4866 331.656C26.0375 331.991 27.5419 332.465 29.0057 333.039C30.4694 333.614 31.8791 334.281 33.2905 334.999C34.3492 335.538 35.4024 336.107 36.4509 336.681L38.5449 337.831C39.5933 338.405 40.6462 338.974 41.7048 339.513C43.1164 340.231 44.5419 340.898 46.0057 341.473C47.4694 342.047 48.9579 342.521 50.5087 342.856C52.0596 343.191 53.6666 343.383 55.3394 343.383C57.0121 343.383 58.6188 343.191 60.1696 342.856C61.7205 342.521 63.2093 342.047 64.6731 341.473C66.1368 340.898 67.5621 340.231 68.9735 339.513C70.385 338.795 71.7868 338.022 73.1809 337.256C74.575 336.49 75.9607 335.717 77.3722 334.999C78.7838 334.281 80.2249 333.614 81.6887 333.039C83.1524 332.465 84.672 331.991 86.2228 331.656C87.7737 331.32 89.3652 331.129 91.038 331.129C92.7107 331.129 94.3018 331.321 95.8526 331.656C97.4034 331.991 98.923 332.465 100.387 333.039C101.851 333.614 103.261 334.281 104.672 334.999C105.731 335.538 106.784 336.107 107.832 336.681L109.926 337.831C110.975 338.405 112.028 338.974 113.086 339.513C114.498 340.231 115.924 340.898 117.387 341.473C118.851 342.047 120.339 342.521 121.89 342.856C123.441 343.191 125.032 343.383 126.705 343.383C128.378 343.383 130 343.191 131.551 342.856C133.102 342.521 134.59 342.047 136.054 341.473C137.518 340.898 138.943 340.231 140.355 339.513C140.996 339.187 141.635 338.833 142.272 338.491C142.29 338.524 142.3 338.557 142.318 338.59C143.076 338.141 143.841 337.715 144.593 337.256C144.716 337.182 144.845 337.116 144.967 337.042C146.226 336.351 147.496 335.647 148.769 334.999C150.181 334.281 151.591 333.614 153.054 333.039C154.518 332.465 156.022 331.991 157.573 331.656C158.954 331.357 160.382 331.198 161.858 331.161C163.341 331.197 164.772 331.356 166.159 331.656C167.71 331.991 169.214 332.465 170.678 333.039C172.141 333.614 173.567 334.281 174.978 334.999C176.037 335.538 177.09 336.107 178.138 336.681L180.232 337.831C181.281 338.405 182.334 338.974 183.393 339.513C184.804 340.231 186.214 340.898 187.678 341.473C189.141 342.047 190.661 342.521 192.212 342.856C193.763 343.191 195.354 343.383 197.027 343.383C198.7 343.383 200.291 343.191 201.842 342.856C203.393 342.521 204.897 342.047 206.36 341.473C207.824 340.898 209.265 340.231 210.677 339.513C212.088 338.795 213.474 338.022 214.868 337.256C216.262 336.49 217.649 335.717 219.06 334.999C220.472 334.281 221.912 333.614 223.376 333.039C224.84 332.465 226.329 331.991 227.88 331.656C229.43 331.321 231.037 331.129 232.71 331.129ZM106.232 361.177C100.714 361.177 96.2403 365.653 96.2402 371.173V411.045C96.2403 416.566 100.714 421.041 106.232 421.041H146.087C151.605 421.041 156.079 416.566 156.079 411.045V371.173C156.079 365.653 151.605 361.177 146.087 361.177H106.232Z" fill="white"/>
<path d="M232.71 293.901C234.383 293.901 235.99 294.093 237.54 294.428C239.091 294.764 240.58 295.238 242.043 295.812C243.507 296.387 244.933 297.054 246.344 297.772C246.632 297.919 247.824 298.272 249.327 298.7V317.901C249.207 317.89 249.086 317.879 248.962 317.868C248.172 317.451 247.376 317.045 246.578 316.649C245.13 315.931 243.651 315.247 242.153 314.673C240.654 314.098 239.145 313.624 237.572 313.289C235.998 312.954 234.382 312.778 232.71 312.778C231.037 312.778 229.43 312.954 227.88 313.289C226.329 313.624 224.84 314.098 223.376 314.673C221.912 315.247 220.472 315.931 219.06 316.649C217.648 317.367 216.262 318.14 214.868 318.906C213.474 319.672 212.089 320.428 210.677 321.146C209.265 321.865 207.824 322.532 206.36 323.106C204.897 323.681 203.393 324.155 201.842 324.49C200.291 324.825 198.7 325.034 197.027 325.034C195.354 325.034 193.763 324.825 192.212 324.49C190.661 324.155 189.141 323.681 187.678 323.106C186.214 322.532 184.804 321.865 183.393 321.146C181.981 320.428 180.579 319.672 179.185 318.906C179.049 318.831 178.917 318.75 178.781 318.675C177.647 317.985 176.509 317.297 175.352 316.649C174.071 315.931 172.77 315.247 171.41 314.673C170.05 314.098 168.615 313.624 167.125 313.289C165.635 312.954 164.076 312.778 162.403 312.778C162.221 312.778 162.039 312.79 161.858 312.795C161.683 312.791 161.505 312.778 161.329 312.778C159.656 312.778 158.082 312.954 156.591 313.289C155.101 313.624 153.698 314.098 152.338 314.673C150.978 315.247 149.661 315.931 148.38 316.649C147.223 317.297 146.101 317.985 144.967 318.675C144.831 318.75 144.698 318.831 144.562 318.906C143.168 319.672 141.767 320.428 140.355 321.146C138.944 321.865 137.518 322.532 136.054 323.106C134.59 323.681 133.102 324.155 131.551 324.49C130 324.825 128.378 325.034 126.705 325.034C125.032 325.034 123.441 324.825 121.89 324.49C120.339 324.155 118.851 323.681 117.387 323.106C115.923 322.532 114.498 321.865 113.086 321.146C111.675 320.428 110.273 319.672 108.879 318.906C107.485 318.14 106.084 317.367 104.672 316.649C103.261 315.931 101.851 315.247 100.387 314.673C98.9231 314.098 97.4034 313.624 95.8526 313.289C94.3018 312.954 92.7107 312.778 91.038 312.778C89.3651 312.778 87.7737 312.954 86.2228 313.289C84.672 313.624 83.1524 314.098 81.6887 314.673C80.2249 315.247 78.7838 315.931 77.3722 316.649C75.9608 317.367 74.5749 318.14 73.1809 318.906C71.7868 319.672 70.385 320.428 68.9735 321.146C67.5621 321.865 66.1368 322.532 64.6731 323.106C63.2093 323.681 61.7205 324.155 60.1696 324.49C58.6188 324.825 57.0121 325.034 55.3394 325.034C53.7781 325.034 52.2479 324.825 50.758 324.49C49.2682 324.155 47.8225 323.681 46.3797 323.106C43.494 321.957 40.6691 320.438 37.8251 318.906C36.4031 318.14 34.9724 317.368 33.5243 316.649C32.0762 315.931 30.6133 315.247 29.1148 314.673C27.6161 314.098 26.0913 313.624 24.5178 313.289C22.9443 312.954 21.3292 312.778 19.6564 312.778C17.9836 312.778 16.3922 312.954 14.8413 313.289C13.2905 313.624 11.7865 314.098 10.3227 314.673C8.85895 315.247 7.41779 315.931 6.00625 316.649C4.59479 317.367 3.20897 318.14 1.81493 318.906C1.19529 319.053 0.596462 319.21 0.0199656 319.374C0.000554066 318.713 0 318.364 0 318.364V301.012C0.606318 300.684 1.21068 300.361 1.81493 300.029C3.20898 299.263 4.59479 298.491 6.00625 297.772C7.41778 297.054 8.85893 296.387 10.3227 295.812C11.7865 295.238 13.2905 294.764 14.8413 294.428C16.3922 294.093 17.9836 293.901 19.6564 293.901C21.3292 293.901 22.9358 294.093 24.4866 294.428C26.0375 294.764 27.5419 295.237 29.0057 295.812C30.4694 296.387 31.879 297.054 33.2905 297.772C34.3492 298.311 35.4024 298.88 36.4509 299.454L38.5449 300.604C39.5933 301.178 40.6462 301.747 41.7048 302.286C43.1164 303.004 44.5419 303.671 46.0057 304.246C47.4694 304.82 48.9579 305.294 50.5087 305.63C52.0596 305.965 53.6666 306.157 55.3394 306.157C57.0121 306.157 58.6188 305.965 60.1696 305.63C61.7205 305.294 63.2093 304.82 64.6731 304.246C66.1368 303.671 67.562 303.004 68.9735 302.286C70.385 301.567 71.7868 300.795 73.1809 300.029C74.5749 299.263 75.9608 298.491 77.3722 297.772C78.7838 297.054 80.2249 296.387 81.6887 295.812C83.1524 295.238 84.672 294.764 86.2228 294.428C87.7737 294.093 89.3652 293.901 91.038 293.901C92.7107 293.901 94.3018 294.093 95.8526 294.428C97.4034 294.764 98.923 295.238 100.387 295.812C101.851 296.387 103.261 297.054 104.672 297.772C105.731 298.311 106.784 298.88 107.832 299.454L109.926 300.604C110.975 301.178 112.028 301.747 113.086 302.286C114.498 303.004 115.923 303.671 117.387 304.246C118.851 304.82 120.339 305.294 121.89 305.63C123.441 305.965 125.032 306.157 126.705 306.157C128.378 306.157 130 305.965 131.551 305.63C133.102 305.294 134.59 304.82 136.054 304.246C137.518 303.671 138.943 303.004 140.355 302.286C140.996 301.959 141.635 301.622 142.272 301.281C142.29 301.314 142.3 301.33 142.318 301.363C143.076 300.915 143.841 300.488 144.593 300.029C144.715 299.954 144.845 299.89 144.967 299.815C146.226 299.124 147.496 298.42 148.769 297.772C150.181 297.054 151.59 296.387 153.054 295.812C154.518 295.237 156.022 294.764 157.573 294.428C158.954 294.13 160.382 293.955 161.858 293.918C163.341 293.954 164.772 294.129 166.159 294.428C167.71 294.764 169.214 295.238 170.678 295.812C172.141 296.387 173.567 297.054 174.978 297.772C176.037 298.311 177.09 298.88 178.138 299.454L180.232 300.604C181.281 301.178 182.334 301.747 183.393 302.286C184.804 303.004 186.214 303.671 187.678 304.246C189.141 304.82 190.661 305.294 192.212 305.63C193.763 305.965 195.354 306.157 197.027 306.157C198.7 306.157 200.291 305.965 201.842 305.63C203.393 305.294 204.897 304.82 206.36 304.246C207.824 303.671 209.265 303.004 210.677 302.286C212.088 301.567 213.474 300.795 214.868 300.029C216.262 299.263 217.649 298.491 219.06 297.772C220.472 297.054 221.912 296.387 223.376 295.812C224.84 295.237 226.329 294.764 227.88 294.428C229.43 294.093 231.037 293.901 232.71 293.901Z" fill="white"/>
<path d="M232.71 256.675C234.383 256.675 235.99 256.867 237.54 257.202C239.091 257.537 240.58 258.011 242.043 258.585C243.507 259.16 244.933 259.827 246.344 260.546C246.808 260.782 248.092 261.433 249.327 262.065V280.56C247.997 280.024 246.876 279.57 246.578 279.423C245.13 278.704 243.651 278.037 242.153 277.462C240.654 276.888 239.145 276.397 237.572 276.062C235.998 275.727 234.382 275.535 232.71 275.535C231.037 275.535 229.43 275.727 227.88 276.062C226.329 276.397 224.84 276.888 223.376 277.462C221.912 278.037 220.472 278.704 219.06 279.423C217.649 280.141 216.262 280.897 214.868 281.663C213.474 282.429 212.088 283.201 210.677 283.919C209.265 284.637 207.824 285.305 206.36 285.88C204.897 286.454 203.393 286.928 201.842 287.263C200.291 287.598 198.7 287.79 197.027 287.79C195.354 287.79 193.763 287.598 192.212 287.263C190.661 286.928 189.141 286.454 187.678 285.88C186.214 285.305 184.804 284.637 183.393 283.919C181.981 283.201 180.579 282.429 179.185 281.663C179.049 281.588 178.917 281.523 178.781 281.449C177.647 280.758 176.509 280.071 175.352 279.423C174.071 278.704 172.77 278.037 171.41 277.462C170.05 276.888 168.615 276.397 167.125 276.062C165.635 275.727 164.076 275.535 162.403 275.535C162.221 275.535 162.039 275.564 161.858 275.568C161.683 275.564 161.505 275.535 161.329 275.535C159.656 275.535 158.082 275.727 156.591 276.062C155.101 276.397 153.698 276.888 152.338 277.462C150.978 278.037 149.661 278.704 148.38 279.423C147.223 280.071 146.101 280.758 144.967 281.449C144.831 281.524 144.698 281.588 144.562 281.663C143.168 282.429 141.766 283.201 140.355 283.919C138.944 284.637 137.518 285.305 136.054 285.88C134.59 286.454 133.102 286.928 131.551 287.263C130 287.598 128.378 287.79 126.705 287.79C125.032 287.79 123.441 287.598 121.89 287.263C120.339 286.928 118.851 286.454 117.387 285.88C115.923 285.305 114.498 284.637 113.086 283.919C111.675 283.201 110.273 282.429 108.879 281.663C107.485 280.897 106.084 280.141 104.672 279.423C103.261 278.704 101.851 278.037 100.387 277.462C98.9231 276.888 97.4034 276.397 95.8526 276.062C94.3018 275.727 92.7107 275.535 91.038 275.535C89.3652 275.535 87.7737 275.727 86.2228 276.062C84.6721 276.397 83.1524 276.888 81.6887 277.462C80.2249 278.037 78.7837 278.704 77.3722 279.423C75.9608 280.141 74.5749 280.897 73.1809 281.663C71.7868 282.429 70.385 283.201 68.9735 283.919C67.562 284.637 66.1368 285.305 64.6731 285.88C63.2093 286.454 61.7205 286.928 60.1696 287.263C58.6188 287.598 57.0121 287.79 55.3394 287.79C53.7781 287.79 52.2479 287.598 50.758 287.263C49.2682 286.928 47.8225 286.454 46.3797 285.88C43.494 284.73 40.6691 283.195 37.8251 281.663C36.4031 280.897 34.9724 280.141 33.5243 279.423C32.0762 278.704 30.6134 278.037 29.1148 277.462C27.6161 276.888 26.0913 276.397 24.5178 276.062C22.9443 275.727 21.3291 275.535 19.6564 275.535C17.9836 275.535 16.3922 275.727 14.8413 276.062C13.2905 276.397 11.7865 276.888 10.3227 277.462C8.85895 278.037 7.41779 278.704 6.00625 279.423C4.59479 280.141 3.20896 280.897 1.81493 281.663C1.21178 281.994 0.607044 282.327 0 282.653V263.784C0.606308 263.457 1.2107 263.134 1.81493 262.802C3.20898 262.036 4.59479 261.264 6.00625 260.546C7.41777 259.827 8.85893 259.16 10.3227 258.585C11.7865 258.011 13.2905 257.537 14.8413 257.202C16.3922 256.867 17.9836 256.675 19.6564 256.675C21.3292 256.675 22.9358 256.867 24.4866 257.202C26.0375 257.537 27.5419 258.011 29.0057 258.585C30.4694 259.16 31.879 259.828 33.2905 260.546C34.3492 261.084 35.4024 261.653 36.4509 262.227L38.5449 263.377C39.5933 263.951 40.6462 264.52 41.7048 265.059C43.1164 265.777 44.5419 266.445 46.0057 267.019C47.4694 267.594 48.9579 268.068 50.5087 268.403C52.0596 268.738 53.6666 268.93 55.3394 268.93C57.0121 268.93 58.6188 268.738 60.1696 268.403C61.7205 268.068 63.2093 267.594 64.6731 267.019C66.1368 266.445 67.562 265.777 68.9735 265.059C70.3851 264.341 71.7868 263.568 73.1809 262.802C74.5749 262.036 75.9608 261.264 77.3722 260.546C78.7838 259.827 80.2249 259.16 81.6887 258.585C83.1524 258.011 84.672 257.537 86.2228 257.202C87.7737 256.867 89.3652 256.675 91.038 256.675C92.7107 256.675 94.3018 256.867 95.8526 257.202C97.4034 257.537 98.923 258.011 100.387 258.585C101.851 259.16 103.261 259.827 104.672 260.546C105.731 261.084 106.784 261.653 107.832 262.227L109.926 263.377C110.975 263.951 112.028 264.52 113.086 265.059C114.498 265.777 115.923 266.445 117.387 267.019C118.851 267.594 120.339 268.068 121.89 268.403C123.441 268.738 125.032 268.93 126.705 268.93C128.378 268.93 130 268.738 131.551 268.403C133.102 268.068 134.59 267.594 136.054 267.019C137.518 266.445 138.943 265.777 140.355 265.059C140.996 264.733 141.635 264.395 142.272 264.054C142.29 264.087 142.3 264.104 142.318 264.137C143.076 263.688 143.841 263.261 144.593 262.802C144.716 262.728 144.845 262.662 144.967 262.588C146.226 261.897 147.496 261.194 148.769 260.546C150.181 259.828 151.59 259.16 153.054 258.585C154.518 258.011 156.022 257.537 157.573 257.202C158.954 256.903 160.382 256.728 161.858 256.691C163.341 256.727 164.772 256.902 166.159 257.202C167.71 257.537 169.214 258.011 170.678 258.585C172.141 259.16 173.567 259.827 174.978 260.546C176.037 261.084 177.09 261.653 178.138 262.227L180.232 263.377C181.281 263.951 182.334 264.52 183.393 265.059C184.804 265.777 186.214 266.445 187.678 267.019C189.141 267.594 190.661 268.068 192.212 268.403C193.763 268.738 195.354 268.93 197.027 268.93C198.7 268.93 200.291 268.738 201.842 268.403C203.393 268.068 204.897 267.594 206.36 267.019C207.824 266.445 209.265 265.777 210.677 265.059C212.088 264.341 213.474 263.568 214.868 262.802C216.262 262.036 217.649 261.264 219.06 260.546C220.472 259.828 221.912 259.16 223.376 258.585C224.84 258.011 226.329 257.537 227.88 257.202C229.43 256.867 231.037 256.675 232.71 256.675Z" fill="white"/>
<path d="M31.4152 199.545C34.1692 199.545 36.4017 201.779 36.4017 204.534C36.4017 207.289 34.1692 209.523 31.4152 209.523C28.6612 209.523 26.4287 207.289 26.4287 204.534C26.4287 201.779 28.6612 199.545 31.4152 199.545Z" fill="white"/>
<path d="M64.825 199.545C67.579 199.545 69.8116 201.779 69.8116 204.534C69.8116 207.289 67.579 209.523 64.825 209.523C62.071 209.523 59.8385 207.289 59.8385 204.534C59.8385 201.779 62.071 199.545 64.825 199.545Z" fill="white"/>
<path d="M48.3694 183.083C51.1234 183.083 53.356 185.316 53.356 188.072C53.356 190.827 51.1234 193.06 48.3694 193.06C45.6155 193.06 43.3829 190.827 43.3829 188.072C43.3829 185.316 45.6155 183.083 48.3694 183.083Z" fill="white"/>
<path d="M31.4152 166.62C34.1692 166.62 36.4017 168.854 36.4017 171.609C36.4017 174.364 34.1692 176.598 31.4152 176.598C28.6612 176.598 26.4287 174.364 26.4287 171.609C26.4287 168.854 28.6612 166.62 31.4152 166.62Z" fill="white"/>
<path d="M64.825 166.122C67.579 166.122 69.8116 168.355 69.8116 171.11C69.8116 173.865 67.579 176.099 64.825 176.099C62.071 176.099 59.8385 173.865 59.8385 171.11C59.8385 168.355 62.071 166.122 64.825 166.122Z" fill="white"/>
<path d="M185.001 199.545C187.755 199.545 189.987 201.779 189.987 204.534C189.987 207.289 187.755 209.523 185.001 209.523C182.247 209.523 180.014 207.289 180.014 204.534C180.014 201.779 182.247 199.545 185.001 199.545Z" fill="white"/>
<path d="M218.41 199.545C221.164 199.545 223.397 201.779 223.397 204.534C223.397 207.289 221.164 209.523 218.41 209.523C215.656 209.523 213.424 207.289 213.424 204.534C213.424 201.779 215.656 199.545 218.41 199.545Z" fill="white"/>
<path d="M201.955 183.083C204.709 183.083 206.941 185.316 206.941 188.072C206.941 190.827 204.709 193.06 201.955 193.06C199.201 193.06 196.968 190.827 196.968 188.072C196.968 185.316 199.201 183.083 201.955 183.083Z" fill="white"/>
<path d="M185.001 166.62C187.755 166.62 189.987 168.854 189.987 171.609C189.987 174.364 187.755 176.598 185.001 176.598C182.247 176.598 180.014 174.364 180.014 171.609C180.014 168.854 182.247 166.62 185.001 166.62Z" fill="white"/>
<path d="M218.41 166.122C221.164 166.122 223.397 168.355 223.397 171.11C223.397 173.865 221.164 176.099 218.41 176.099C215.656 176.099 213.424 173.865 213.424 171.11C213.424 168.355 215.656 166.122 218.41 166.122Z" fill="white"/>
<path fill-rule="evenodd" clip-rule="evenodd" d="M249.327 243.53C248.245 243.004 247.042 242.425 246.578 242.195C245.13 241.477 243.651 240.81 242.153 240.235C240.654 239.661 239.145 239.171 237.572 238.835C235.998 238.5 234.382 238.308 232.71 238.308C231.037 238.308 229.43 238.5 227.88 238.835C226.329 239.17 224.84 239.661 223.376 240.235C221.912 240.81 220.472 241.477 219.06 242.195C217.649 242.914 216.262 243.67 214.868 244.436C213.474 245.202 212.088 245.974 210.677 246.692C209.265 247.411 207.824 248.078 206.36 248.653C204.897 249.227 203.393 249.701 201.842 250.036C200.291 250.372 198.7 250.564 197.027 250.564C195.354 250.563 193.763 250.372 192.212 250.036C190.661 249.701 189.141 249.227 187.678 248.653C186.214 248.078 184.804 247.411 183.393 246.692C181.981 245.974 180.579 245.202 179.185 244.436C179.049 244.361 178.917 244.296 178.781 244.222C177.647 243.531 176.509 242.843 175.352 242.195C174.071 241.477 172.77 240.81 171.41 240.235C170.05 239.661 168.615 239.171 167.125 238.835C165.635 238.5 164.076 238.308 162.403 238.308C162.221 238.308 162.039 238.32 161.858 238.325C161.683 238.321 161.505 238.308 161.329 238.308C159.656 238.308 158.082 238.5 156.591 238.835C155.101 239.17 153.698 239.661 152.338 240.235C150.978 240.81 149.661 241.477 148.38 242.195C147.223 242.843 146.101 243.531 144.967 244.222C144.831 244.296 144.698 244.361 144.562 244.436C143.168 245.202 141.766 245.974 140.355 246.692C138.944 247.411 137.518 248.078 136.054 248.653C134.59 249.227 133.102 249.701 131.551 250.036C130 250.372 128.378 250.564 126.705 250.564C125.032 250.563 123.441 250.372 121.89 250.036C120.339 249.701 118.851 249.227 117.387 248.653C115.923 248.078 114.498 247.411 113.086 246.692C111.675 245.974 110.273 245.202 108.879 244.436C107.485 243.67 106.084 242.914 104.672 242.195C103.261 241.477 101.851 240.81 100.387 240.235C98.923 239.661 97.4034 239.17 95.8526 238.835C94.3018 238.5 92.7107 238.308 91.038 238.308C89.3652 238.308 87.7737 238.5 86.2228 238.835C84.672 239.17 83.1524 239.661 81.6887 240.235C80.2249 240.81 78.7837 241.477 77.3722 242.195C75.9607 242.914 74.575 243.67 73.1809 244.436C71.7868 245.202 70.385 245.974 68.9735 246.692C67.562 247.411 66.1368 248.078 64.6731 248.653C63.2093 249.227 61.7205 249.701 60.1696 250.036C58.6188 250.372 57.0121 250.564 55.3394 250.564C53.7781 250.564 52.2479 250.372 50.758 250.036C49.2682 249.701 47.8225 249.227 46.3797 248.653C43.494 247.504 40.6691 245.968 37.8251 244.436C36.4031 243.67 34.9724 242.914 33.5243 242.195C32.0762 241.477 30.6133 240.81 29.1148 240.235C27.6161 239.661 26.0913 239.171 24.5178 238.835C22.9443 238.5 21.3292 238.308 19.6564 238.308C17.9836 238.308 16.3922 238.5 14.8413 238.835C13.2905 239.17 11.7865 239.661 10.3227 240.235C8.85895 240.81 7.41778 241.477 6.00625 242.195C4.59472 242.914 3.20903 243.67 1.81493 244.436C1.21176 244.767 0.60707 245.101 0 245.426V139.682H249.327V243.53ZM124.664 148.661C124.664 148.661 112.995 156.444 112.995 168.117C112.995 179.79 120.774 187.573 120.774 203.137H116.885C116.885 203.137 116.884 195.355 112.995 187.573C105.216 172.008 89.658 179.79 89.6579 191.464C89.6579 203.137 97.4372 203.137 97.4372 203.137C97.4372 191.464 111.05 191.464 111.05 203.137H105.216V210.919H118.829L112.995 218.702C112.997 218.704 116.886 222.592 120.774 218.702L124.664 226.484L128.553 218.702C132.442 222.593 136.332 218.702 136.332 218.702L130.498 210.919H144.111V203.137H138.277C138.277 191.464 151.89 191.464 151.89 203.137C151.89 203.137 159.669 203.137 159.669 191.464C159.669 179.79 144.111 172.008 136.332 187.573C132.443 195.355 132.442 203.137 132.442 203.137H128.553C128.553 187.573 136.332 179.79 136.332 168.117C136.332 156.447 124.669 148.665 124.664 148.661ZM27.9431 157.641C22.425 157.641 17.9516 162.116 17.9515 167.637V207.509C17.9516 213.029 22.425 217.504 27.9431 217.505H67.7984C73.3166 217.504 77.7899 213.029 77.79 207.509V167.637C77.7899 162.116 73.3166 157.641 67.7984 157.641H27.9431ZM181.529 157.641C176.01 157.641 171.537 162.116 171.537 167.637V207.509C171.537 213.029 176.01 217.504 181.529 217.505H221.384C226.902 217.504 231.375 213.029 231.375 207.509V167.637C231.375 162.116 226.902 157.641 221.384 157.641H181.529Z" fill="white"/>
<path d="M152.605 31.6385C144.33 31.6385 136.92 34.1198 131.111 38.3666V25.1795H137.56C139.27 25.1795 140.91 24.499 142.119 23.2877C143.328 22.0764 144.008 20.4335 144.008 18.7205C144.008 17.0075 143.328 15.3646 142.119 14.1533C140.91 12.942 139.27 12.2615 137.56 12.2615H131.111V6.45897C131.111 4.74595 130.432 3.10308 129.223 1.89179C128.014 0.680497 126.373 0 124.663 0C122.953 0 121.313 0.680497 120.104 1.89179C118.895 3.10308 118.215 4.74595 118.215 6.45897V12.2615H111.767C110.057 12.2615 108.417 12.942 107.208 14.1533C105.998 15.3646 105.319 17.0075 105.319 18.7205C105.319 20.4335 105.998 22.0764 107.208 23.2877C108.417 24.499 110.057 25.1795 111.767 25.1795H118.215V38.3666C112.407 34.1198 104.997 31.6385 96.7215 31.6385C87.6038 31.6484 78.8623 35.2809 72.4151 41.739C65.9679 48.1971 62.3415 56.9532 62.3315 66.0863C62.3315 83.1272 70.6765 90.8273 77.6727 96.3766C80.8674 98.9002 84.3817 100.989 88.124 102.588C88.124 110.475 88.124 121.723 88.124 121.723H161.203C161.203 121.723 161.203 110.475 161.203 102.588C164.945 100.989 168.459 98.9002 171.654 96.3766C178.65 90.8273 186.995 83.1272 186.995 66.0863C186.985 56.9532 183.359 48.1971 176.911 41.739C170.464 35.2809 161.723 31.6484 152.605 31.6385ZM148.306 95.0631V108.805H101.02V95.0631C101.02 95.0631 90.3613 89.9771 85.6791 86.2468C78.742 80.7459 75.2278 75.6187 75.2278 66.0863C75.2278 60.3762 77.4923 54.9 81.5231 50.8624C85.554 46.8247 91.021 44.5564 96.7215 44.5564C109.177 44.5564 118.215 52.7055 118.215 63.9333V85.752C118.215 87.4651 118.895 89.1079 120.104 90.3192C121.313 91.5305 122.953 92.211 124.663 92.211C126.373 92.211 128.014 91.5305 129.223 90.3192C130.432 89.1079 131.111 87.4651 131.111 85.752V63.9333C131.111 52.7055 140.15 44.5564 152.605 44.5564C158.306 44.5564 163.773 46.8247 167.803 50.8624C171.834 54.9 174.099 60.3762 174.099 66.0863C174.099 84.922 148.306 95.0631 148.306 95.0631Z" fill="white"/>
</svg>
