<svg width="306" height="132" viewBox="0 0 306 132" fill="none" xmlns="http://www.w3.org/2000/svg">
<g clip-path="url(#clip0_2162_56)">
<path d="M138.17 93.33C137.38 74.04 116.26 61.8 99.3301 71.47C80.5001 81.98 81.7901 110.12 101.55 118.8C119.3 126.81 139.19 112.58 138.17 93.33ZM131.18 95.66C130.55 109.6 115.4 118.33 103.05 111.75C88.7001 103.9 89.8101 82.68 104.99 76.52C117.94 71.27 132.12 81.8 131.18 95.66Z" fill="white"/>
<path d="M201.36 92.6599C199.56 69.6999 171.83 59.6999 156.03 76.5699C156.02 76.0399 156.03 34.6599 156.03 34.1299C155.35 29.8799 149.14 30.1799 149.09 34.5699C149.3 35.8899 148.68 117.69 149.31 118.85C149.84 120.12 151.13 121.09 152.53 121.02C157.13 120.91 155.86 115.6 156.03 112.59C173.22 130.78 202.9 117.5 201.36 92.6699V92.6599ZM194.43 94.5499C194.58 108.44 179.89 118.2 167.24 112.19C152.42 105.3 152.42 83.8399 167.24 76.9599C179.83 70.9299 194.56 80.7099 194.43 94.5499Z" fill="white"/>
<path d="M49.7302 21.3601C49.5902 16.7201 42.9502 16.7001 42.7402 21.3601C43.0302 26.0101 49.5102 25.9701 49.7302 21.3601Z" fill="white"/>
<path d="M58.44 21.36C58.39 16.69 51.62 16.73 51.5 21.36C51.66 25.96 58.34 26.01 58.44 21.36Z" fill="white"/>
<path d="M67.2 21.36C66.97 16.7 60.4 16.71 60.21 21.36C60.45 25.98 66.93 25.99 67.2 21.36Z" fill="white"/>
<path d="M45.3399 28.9601C45.2599 24.3201 38.5299 24.3701 38.3999 28.9601C38.4899 33.6001 45.2899 33.6501 45.3399 28.9601Z" fill="white"/>
<path d="M54.1101 28.96C53.9101 24.35 47.3801 24.32 47.1201 28.96C47.3701 33.65 53.9301 33.62 54.1101 28.96Z" fill="white"/>
<path d="M62.8199 28.96C62.6599 24.35 55.9799 24.32 55.8799 28.96C55.9399 33.65 62.6999 33.61 62.8199 28.96Z" fill="white"/>
<path d="M71.5901 28.9601C71.3301 24.3201 64.7901 24.3701 64.6001 28.9601C64.7801 33.6101 71.3501 33.6501 71.5901 28.9601Z" fill="white"/>
<path d="M49.7302 36.62C49.5602 31.99 42.9802 31.97 42.7402 36.62C43.0402 41.29 49.5002 41.25 49.7302 36.62Z" fill="white"/>
<path d="M58.44 36.62C58.36 31.95 51.64 32 51.5 36.62C51.67 41.23 58.33 41.28 58.44 36.62Z" fill="white"/>
<path d="M67.2 36.62C66.95 31.97 60.43 31.98 60.21 36.62C60.46 41.26 66.92 41.26 67.2 36.62Z" fill="white"/>
<path d="M58.44 51.88C58.33 47.26 51.68 47.31 51.5 51.88C51.62 56.53 58.39 56.57 58.44 51.88Z" fill="white"/>
<path d="M54.1101 44.2801C53.9401 39.6501 47.3601 39.6301 47.1201 44.2801C47.4201 48.9501 53.8801 48.9101 54.1101 44.2801Z" fill="white"/>
<path d="M62.8199 44.28C62.6799 39.65 55.9599 39.62 55.8799 44.28C56.0099 48.95 62.6299 48.91 62.8199 44.28Z" fill="white"/>
<path d="M6.9498 27.5201C-0.650196 27.2601 -2.2602 17.74 3.3398 13.5401C6.8898 10.5101 12.7898 11.3101 15.5498 15.0401C18.5798 18.13 17.0198 27.1601 17.3798 31.0201H17.4398C17.4398 12.2001 40.2098 2.74005 53.3898 16.32C52.2998 16.72 51.1998 17.46 50.6198 18.48C44.0898 11.71 32.2298 11.7701 25.8698 18.76C18.5298 26.09 19.5498 38.9101 27.8098 45.1101C33.5498 49.2301 58.0698 62.3501 62.9298 67.0801C69.8798 73.4201 74.2298 82.5001 74.9098 91.8801C76.6598 114.77 56.7098 134.34 33.7998 131.33C15.7498 129.28 1.3798 112.67 1.7298 94.5501H1.6698C1.7798 88.9901 9.2398 87.2501 11.6598 92.3301C12.5798 94.5701 12.0398 97.2601 12.6598 99.6001C13.6598 104.9 16.3798 109.95 20.2598 113.69C34.2298 127.35 57.9198 120.96 63.3698 102.26C65.9898 93.8601 64.0198 84.2501 58.3798 77.5101C53.2198 71.1701 26.9798 56.21 20.8198 50.71C16.0498 46.31 12.8998 40.1 12.3298 33.62C11.8098 30.6 12.6198 21.78 11.8898 18.81C10.4198 14.09 3.6698 13.99 2.0098 18.64C0.719804 21.92 3.3898 25.87 6.9498 25.74V25.8C11.5098 25.81 11.4898 32.7601 6.9498 32.7901V32.85C5.3598 32.83 4.6198 34.8301 5.7798 35.9001C6.5798 36.5901 7.8298 36.18 8.6698 36.84C10.3898 37.72 10.7498 39.98 10.1098 41.67C9.5898 43.07 8.3298 44.6 6.7798 44.78C5.9298 44.58 5.8298 43.47 6.6098 43.12H6.5498C8.1198 42.4 9.3698 40.1501 8.1598 38.6301C7.2298 37.8601 5.7598 38.25 4.8298 37.41C2.1798 35.44 3.6198 31.02 6.9398 31.08V31.0201C9.2098 30.9201 9.1998 27.7501 6.9398 27.5201H6.9498Z" fill="white"/>
<path d="M68.3699 23.69C71.1199 17.75 63.1299 13.04 59.3299 18.42C58.4999 17.11 57.0799 16.28 55.5599 16.09C55.1199 15.62 54.2299 14.67 53.7799 14.2C56.3999 14.41 56.5899 11.97 54.8299 10.59C54.1599 10.09 52.9699 10.41 52.5599 9.58997C52.3799 9.25997 52.2599 8.81997 51.8899 8.64997C51.4899 8.28997 51.0799 7.89997 50.8899 7.36997C50.7299 6.70997 50.7399 5.84997 51.3299 5.42997C52.9699 4.62997 52.7699 5.02997 53.4899 3.26997C53.7899 2.86997 54.3199 3.07997 54.7099 2.93997C55.0399 2.90997 55.3399 2.57997 55.5999 2.38997C56.2099 1.96997 56.8799 2.72997 57.4899 2.49997C57.8499 2.22997 58.0199 1.70997 58.2699 1.32997C58.4999 0.909972 59.1599 1.06997 59.5499 0.889972C59.9899 0.859972 60.2899 0.389972 60.5999 0.109972C61.1899 -0.330028 61.5699 0.639972 61.8199 1.04997C62.0199 1.34997 62.2699 1.66997 62.3699 1.98997C62.1999 3.65997 61.4899 3.54997 62.1499 5.53997C62.4899 7.14997 60.2299 8.42997 60.8699 10.81C61.3199 12.67 62.8999 12.46 64.0899 11.36C65.5699 10.01 64.2799 9.16997 63.7599 7.80997C63.7299 7.26997 63.8299 6.67997 63.8199 6.14997C63.8299 5.46997 63.6699 4.64997 64.3199 4.20997C64.6599 3.63997 65.4699 3.38997 66.0999 3.53997C66.6199 3.65997 67.1099 4.07997 67.6499 4.14997C68.5199 4.42997 68.9299 3.10997 69.6499 2.81997C69.8899 2.62997 70.2399 2.72997 70.5399 2.70997C70.9599 2.66997 71.3499 2.38997 71.6499 2.09997C72.0199 1.92997 72.4599 1.98997 72.8699 2.09997C73.6399 2.40997 74.3999 1.95997 75.0299 1.54997C74.8999 2.19997 74.9699 2.98997 75.4199 3.48997C75.6199 3.84997 76.1599 4.09997 76.1399 4.53997C76.3199 4.95997 75.9899 5.50997 76.1999 5.92997C76.2899 6.25997 76.6499 6.50997 76.5899 6.86997C76.6999 7.53997 76.0199 8.19997 76.2599 8.86997C76.3399 9.42997 77.1799 9.65997 77.5399 10.04C78.1299 10.37 77.9099 11.02 77.7599 11.54C77.7099 12.09 77.9099 12.73 77.5899 13.2C76.8899 13.54 76.1499 13.91 75.5399 14.42C74.5699 14.89 73.1899 14.13 72.4299 15.09C71.7299 16.06 71.6799 18.65 73.2599 18.64C74.3999 18.72 75.4799 17.97 76.1499 17.09C76.6499 16.42 76.8999 15.36 77.6999 14.98C77.9899 14.7 78.5099 14.73 78.8699 14.54C79.6199 14.35 80.1099 13.7 80.5299 13.1C80.9299 12.72 81.5099 12.79 82.0299 12.88C82.4299 12.92 83.1099 12.76 83.3599 13.1H83.4199C83.4899 13.45 83.3899 13.86 83.2499 14.21C83.1099 14.96 84.0599 15.76 83.4199 16.43C82.1699 18.05 83.9799 17.73 83.9699 18.98C83.8399 19.62 83.9499 20.24 84.3599 20.76C84.3899 21.46 83.6799 21.93 83.4199 22.54C83.3299 23.11 83.6599 23.72 83.5299 24.26C83.5099 24.72 83.1199 25.08 82.7499 25.31C82.2899 25.59 81.7299 25.7 81.1999 25.59C80.8099 25.39 80.2999 25.18 79.8699 25.2C79.5399 25.17 79.1699 25.33 78.8699 25.14C78.5099 24.89 78.1199 24.48 77.9299 24.09C77.7699 24.07 77.6399 23.92 77.5399 23.81C77.2899 23.72 77.0199 23.61 76.7599 23.53C75.8299 23.41 74.6199 23.59 74.3199 24.64C74.3299 25.04 74.2599 25.48 74.4299 25.86C74.6799 26.31 74.9899 26.87 75.4799 27.08C76.0299 27.41 76.7299 27.36 77.3099 27.58C78.0399 27.58 78.2299 28.46 78.6399 28.91C78.9399 29.21 79.3599 29.48 79.6899 29.69V29.8H79.7499V29.86H79.6899V29.97C79.2999 30.06 78.8199 30.2 78.4699 30.41C77.9699 30.68 77.5499 31.12 77.0299 31.35C76.5299 31.4 75.9699 31.39 75.4799 31.46C73.9799 32.02 74.2199 32.94 72.3699 32.01C74.7099 28.75 72.4199 23.84 68.3799 23.69H68.3699Z" fill="white"/>
<path d="M264.51 92.05C262.11 67.95 231.69 59.36 217.29 79.01C210.01 88.89 210.82 103.56 219.23 112.52C226.18 120.26 237.93 123.18 247.64 119.34C250.93 118.08 256.47 114.97 257.9 111.68C258.59 108.92 255.85 106.44 253.18 107.52C252.17 108.02 251.28 109.03 250.41 109.74C248.51 111.28 246.15 112.49 243.81 113.18C233.13 116.53 221.41 109.08 219.62 98.09H261.18C261.76 98.06 262.4 97.9 262.9 97.59C264.93 96.54 264.73 93.97 264.51 92.04V92.05ZM219.62 91.05C223.94 69.92 252.98 69.98 257.35 91.05H219.62Z" fill="white"/>
<path d="M301.68 68.08C306.3 68.33 306.26 74.99 301.68 75.13V75.19C294.41 75.03 287.44 79.64 284.37 86.18C281.11 91.66 282.91 111.31 282.48 117.53C282.44 118.26 282.22 119.05 281.76 119.64C280.28 121.82 276.67 121.32 275.77 118.86C275.59 118.48 275.54 117.94 275.49 117.53C275.59 116.6 275.29 71.55 275.6 70.7C276.27 68.23 279.66 67.19 281.43 69.14C283.11 70.41 282.31 74.8 282.48 76.57C287.36 71.22 294.45 68.14 301.68 68.08Z" fill="white"/>
</g>
<defs>
<clipPath id="clip0_2162_56">
<rect width="305.13" height="131.64" fill="white"/>
</clipPath>
</defs>
</svg>
