<svg width="270" height="400" viewBox="0 0 270 400" fill="none" xmlns="http://www.w3.org/2000/svg">
<rect width="270" height="400" fill="black" fill-opacity="0.1"/>
<path d="M116.996 196C120.31 196 122.996 193.314 122.996 190C122.996 186.686 120.31 184 116.996 184C113.682 184 110.996 186.686 110.996 190C110.996 193.314 113.682 196 116.996 196Z" fill="white" fill-opacity="0.2"/>
<path d="M128.996 208L122.996 200L110.996 216H158.996L140.996 192L128.996 208Z" fill="white" fill-opacity="0.2"/>
<path d="M166.996 168H102.996C98.584 168 94.996 171.588 94.996 176V224C94.996 228.412 98.584 232 102.996 232H166.996C171.408 232 174.996 228.412 174.996 224V176C174.996 171.588 171.408 168 166.996 168ZM102.996 224V176H166.996L167.004 224H102.996Z" fill="white" fill-opacity="0.2"/>
</svg>
