<svg width="320" height="180" viewBox="0 0 320 180" fill="none" xmlns="http://www.w3.org/2000/svg">
<rect width="320" height="180" fill="black" fill-opacity="0.1"/>
<path d="M141.996 86C145.31 86 147.996 83.3137 147.996 80C147.996 76.6863 145.31 74 141.996 74C138.682 74 135.996 76.6863 135.996 80C135.996 83.3137 138.682 86 141.996 86Z" fill="white" fill-opacity="0.2"/>
<path d="M153.996 98L147.996 90L135.996 106H183.996L165.996 82L153.996 98Z" fill="white" fill-opacity="0.2"/>
<path d="M191.996 58H127.996C123.584 58 119.996 61.588 119.996 66V114C119.996 118.412 123.584 122 127.996 122H191.996C196.408 122 199.996 118.412 199.996 114V66C199.996 61.588 196.408 58 191.996 58ZM127.996 114V66H191.996L192.004 114H127.996Z" fill="white" fill-opacity="0.2"/>
</svg>
